<?xml version="1.0" encoding="UTF-8" standalone="no"?>
<!-- Created with Inkscape (http://www.inkscape.org/) -->

<svg
   xmlns:dc="http://purl.org/dc/elements/1.1/"
   xmlns:cc="http://creativecommons.org/ns#"
   xmlns:rdf="http://www.w3.org/1999/02/22-rdf-syntax-ns#"
   xmlns:svg="http://www.w3.org/2000/svg"
   xmlns="http://www.w3.org/2000/svg"
   xmlns:sodipodi="http://sodipodi.sourceforge.net/DTD/sodipodi-0.dtd"
   xmlns:inkscape="http://www.inkscape.org/namespaces/inkscape"
   width="354.33069"
   height="531.49603"
   id="svg2"
   version="1.1"
   inkscape:version="0.91 r13725"
   sodipodi:docname="bottom.svg">
  <defs
     id="defs4" />
  <sodipodi:namedview
     id="base"
     pagecolor="#ffffff"
     bordercolor="#666666"
     borderopacity="1.0"
     inkscape:pageopacity="0.0"
     inkscape:pageshadow="2"
     inkscape:zoom="0.98994949"
     inkscape:cx="-77.016278"
     inkscape:cy="93.540756"
     inkscape:document-units="px"
     inkscape:current-layer="layer1"
     showgrid="false"
     units="mm"
     inkscape:window-width="1366"
     inkscape:window-height="726"
     inkscape:window-x="0"
     inkscape:window-y="22"
     inkscape:window-maximized="1"
     inkscape:snap-bbox="true"
     inkscape:bbox-paths="true"
     inkscape:snap-page="true"
     inkscape:snap-global="true" />
  <metadata
     id="metadata7">
    <rdf:RDF>
      <cc:Work
         rdf:about="">
        <dc:format>image/svg+xml</dc:format>
        <dc:type
           rdf:resource="http://purl.org/dc/dcmitype/StillImage" />
        <dc:title></dc:title>
      </cc:Work>
    </rdf:RDF>
  </metadata>
  <g
     inkscape:label="Calque 1"
     inkscape:groupmode="layer"
     id="layer1"
     transform="translate(0,-520.86614)">
    <path
       style="fill:none;fill-opacity:1;stroke:#000000;stroke-opacity:1;stroke-width:0.354;stroke-miterlimit:4;stroke-dasharray:none"
       d="M 0 0 L 0 531.5 L 354.34375 531.5 L 354.34375 0 L 0 0 z M 21.25 14.1875 C 25.175984 14.1875 28.34375 17.324016 28.34375 21.25 L 28.34375 113.375 C 28.34375 117.30098 25.175984 120.46875 21.25 120.46875 C 17.324016 120.46875 14.1875 117.30098 14.1875 113.375 L 14.1875 21.25 C 14.1875 17.324016 17.324016 14.1875 21.25 14.1875 z M 77.9375 14.1875 C 81.863484 14.1875 85.03125 17.324016 85.03125 21.25 L 85.03125 113.375 C 85.03125 117.30098 81.863484 120.46875 77.9375 120.46875 C 74.011516 120.46875 70.875 117.30098 70.875 113.375 L 70.875 21.25 C 70.875 17.324016 74.011516 14.1875 77.9375 14.1875 z M 276.375 14.1875 C 280.30098 14.1875 283.46875 17.324016 283.46875 21.25 L 283.46875 113.375 C 283.46875 117.30098 280.30098 120.46875 276.375 120.46875 C 272.44902 120.46875 269.28125 117.30098 269.28125 113.375 L 269.28125 21.25 C 269.28125 17.324016 272.44902 14.1875 276.375 14.1875 z M 333.0625 14.1875 C 336.98848 14.1875 340.15625 17.324016 340.15625 21.25 L 340.15625 113.375 C 340.15625 117.30098 336.98848 120.46875 333.0625 120.46875 C 329.13652 120.46875 325.96875 117.30098 325.96875 113.375 L 325.96875 21.25 C 325.96875 17.324016 329.13652 14.1875 333.0625 14.1875 z M 177.15625 26.46875 C 200.63922 26.46875 219.6875 45.485776 219.6875 68.96875 C 219.6875 92.451724 200.63922 111.5 177.15625 111.5 C 153.67328 111.5 134.65625 92.451724 134.65625 68.96875 C 134.65625 45.485776 153.67328 26.46875 177.15625 26.46875 z M 21.25 146.46875 C 25.175984 146.46875 28.34375 149.60527 28.34375 153.53125 L 28.34375 245.65625 C 28.34375 249.58223 25.175984 252.75 21.25 252.75 C 17.324016 252.75 14.1875 249.58223 14.1875 245.65625 L 14.1875 153.53125 C 14.1875 149.60527 17.324016 146.46875 21.25 146.46875 z M 77.9375 146.46875 C 81.863484 146.46875 85.03125 149.60527 85.03125 153.53125 L 85.03125 245.65625 C 85.03125 249.58223 81.863484 252.75 77.9375 252.75 C 74.011516 252.75 70.875 249.58223 70.875 245.65625 L 70.875 153.53125 C 70.875 149.60527 74.011516 146.46875 77.9375 146.46875 z M 276.375 146.46875 C 280.30098 146.46875 283.46875 149.60527 283.46875 153.53125 L 283.46875 245.65625 C 283.46875 249.58223 280.30098 252.75 276.375 252.75 C 272.44902 252.75 269.28125 249.58223 269.28125 245.65625 L 269.28125 153.53125 C 269.28125 149.60527 272.44902 146.46875 276.375 146.46875 z M 333.0625 146.46875 C 336.98848 146.46875 340.15625 149.60527 340.15625 153.53125 L 340.15625 245.65625 C 340.15625 249.58223 336.98848 252.75 333.0625 252.75 C 329.13652 252.75 325.96875 249.58223 325.96875 245.65625 L 325.96875 153.53125 C 325.96875 149.60527 329.13652 146.46875 333.0625 146.46875 z M 131.09375 181.875 L 223.21875 181.875 C 227.14473 181.875 230.3125 185.04277 230.3125 188.96875 C 230.3125 192.89473 227.14473 196.0625 223.21875 196.0625 L 131.09375 196.0625 C 127.16777 196.0625 124.03125 192.89473 124.03125 188.96875 C 124.03125 185.04277 127.16777 181.875 131.09375 181.875 z M 131.09375 233.0625 L 223.21875 233.0625 C 227.14473 233.0625 230.3125 236.23027 230.3125 240.15625 C 230.3125 244.08223 227.14473 247.25 223.21875 247.25 L 131.09375 247.25 C 127.16777 247.25 124.03125 244.08223 124.03125 240.15625 C 124.03125 236.23027 127.16777 233.0625 131.09375 233.0625 z M 21.25 278.75 C 25.175984 278.75 28.34375 281.88652 28.34375 285.8125 L 28.34375 377.9375 C 28.34375 381.86348 25.175984 385.03125 21.25 385.03125 C 17.324016 385.03125 14.1875 381.86348 14.1875 377.9375 L 14.1875 285.8125 C 14.1875 281.88652 17.324016 278.75 21.25 278.75 z M 77.9375 278.75 C 81.863484 278.75 85.03125 281.88652 85.03125 285.8125 L 85.03125 377.9375 C 85.03125 381.86348 81.863484 385.03125 77.9375 385.03125 C 74.011516 385.03125 70.875 381.86348 70.875 377.9375 L 70.875 285.8125 C 70.875 281.88652 74.011516 278.75 77.9375 278.75 z M 276.375 278.75 C 280.30098 278.75 283.46875 281.88652 283.46875 285.8125 L 283.46875 377.9375 C 283.46875 381.86348 280.30098 385.03125 276.375 385.03125 C 272.44902 385.03125 269.28125 381.86348 269.28125 377.9375 L 269.28125 285.8125 C 269.28125 281.88652 272.44902 278.75 276.375 278.75 z M 333.0625 278.75 C 336.98848 278.75 340.15625 281.88652 340.15625 285.8125 L 340.15625 377.9375 C 340.15625 381.86348 336.98848 385.03125 333.0625 385.03125 C 329.13652 385.03125 325.96875 381.86348 325.96875 377.9375 L 325.96875 285.8125 C 325.96875 281.88652 329.13652 278.75 333.0625 278.75 z M 131.09375 284.25 L 223.21875 284.25 C 227.14473 284.25 230.3125 287.41777 230.3125 291.34375 C 230.3125 295.26973 227.14473 298.4375 223.21875 298.4375 L 131.09375 298.4375 C 127.16777 298.4375 124.03125 295.26973 124.03125 291.34375 C 124.03125 287.41777 127.16777 284.25 131.09375 284.25 z M 131.09375 335.4375 L 223.21875 335.4375 C 227.14473 335.4375 230.3125 338.60527 230.3125 342.53125 C 230.3125 346.45723 227.14473 349.59375 223.21875 349.59375 L 131.09375 349.59375 C 127.16777 349.59375 124.03125 346.45723 124.03125 342.53125 C 124.03125 338.60527 127.16777 335.4375 131.09375 335.4375 z M 21.25 411.03125 C 25.175984 411.03125 28.34375 414.19902 28.34375 418.125 L 28.34375 510.25 C 28.34375 514.17598 25.175984 517.3125 21.25 517.3125 C 17.324016 517.3125 14.1875 514.17598 14.1875 510.25 L 14.1875 418.125 C 14.1875 414.19902 17.324016 411.03125 21.25 411.03125 z M 77.9375 411.03125 C 81.863484 411.03125 85.03125 414.19902 85.03125 418.125 L 85.03125 510.25 C 85.03125 514.17598 81.863484 517.3125 77.9375 517.3125 C 74.011516 517.3125 70.875 514.17598 70.875 510.25 L 70.875 418.125 C 70.875 414.19902 74.011516 411.03125 77.9375 411.03125 z M 276.375 411.03125 C 280.30098 411.03125 283.46875 414.19902 283.46875 418.125 L 283.46875 510.25 C 283.46875 514.17598 280.30098 517.3125 276.375 517.3125 C 272.44902 517.3125 269.28125 514.17598 269.28125 510.25 L 269.28125 418.125 C 269.28125 414.19902 272.44902 411.03125 276.375 411.03125 z M 333.0625 411.03125 C 336.98848 411.03125 340.15625 414.19902 340.15625 418.125 L 340.15625 510.25 C 340.15625 514.17598 336.98848 517.3125 333.0625 517.3125 C 329.13652 517.3125 325.96875 514.17598 325.96875 510.25 L 325.96875 418.125 C 325.96875 414.19902 329.13652 411.03125 333.0625 411.03125 z M 177.15625 418.125 C 200.63922 418.125 219.6875 437.14203 219.6875 460.625 C 219.6875 484.10797 200.63922 503.15625 177.15625 503.15625 C 153.67328 503.15625 134.65625 484.10797 134.65625 460.625 C 134.65625 437.14203 153.67328 418.125 177.15625 418.125 z "
       id="rect3965"
       transform="translate(0,520.86614)" />
  </g>
</svg>
