<?xml version="1.0" encoding="UTF-8" standalone="no"?>
<!-- Created with Inkscape (http://www.inkscape.org/) -->

<svg
   xmlns:dc="http://purl.org/dc/elements/1.1/"
   xmlns:cc="http://creativecommons.org/ns#"
   xmlns:rdf="http://www.w3.org/1999/02/22-rdf-syntax-ns#"
   xmlns:svg="http://www.w3.org/2000/svg"
   xmlns="http://www.w3.org/2000/svg"
   xmlns:sodipodi="http://sodipodi.sourceforge.net/DTD/sodipodi-0.dtd"
   xmlns:inkscape="http://www.inkscape.org/namespaces/inkscape"
   width="354.33069"
   height="531.49603"
   id="svg2"
   version="1.1"
   inkscape:version="0.91 r13725"
   sodipodi:docname="top.svg">
  <defs
     id="defs4" />
  <sodipodi:namedview
     id="base"
     pagecolor="#ffffff"
     bordercolor="#666666"
     borderopacity="1.0"
     inkscape:pageopacity="0.0"
     inkscape:pageshadow="2"
     inkscape:zoom="0.98994949"
     inkscape:cx="-104.93016"
     inkscape:cy="255.46068"
     inkscape:document-units="px"
     inkscape:current-layer="layer1"
     showgrid="false"
     units="mm"
     inkscape:window-width="1366"
     inkscape:window-height="726"
     inkscape:window-x="0"
     inkscape:window-y="22"
     inkscape:window-maximized="1"
     inkscape:snap-bbox="true"
     inkscape:bbox-paths="true"
     inkscape:snap-page="true" />
  <metadata
     id="metadata7">
    <rdf:RDF>
      <cc:Work
         rdf:about="">
        <dc:format>image/svg+xml</dc:format>
        <dc:type
           rdf:resource="http://purl.org/dc/dcmitype/StillImage" />
        <dc:title></dc:title>
      </cc:Work>
    </rdf:RDF>
  </metadata>
  <g
     inkscape:label="Calque 1"
     inkscape:groupmode="layer"
     id="layer1"
     transform="translate(0,-520.86614)">
    <rect
       style="fill:none;fill-opacity:1;stroke:#000000;stroke-opacity:1;stroke-width:0.35433071;stroke-miterlimit:4;stroke-dasharray:none"
       id="rect3755"
       width="106.29921"
       height="14.173228"
       x="931.88971"
       y="-28.346457"
       rx="7.0866141"
       ry="7.0866141"
       transform="matrix(0,1,-1,0,0,0)" />
    <rect
       transform="matrix(0,1,-1,0,0,0)"
       ry="7.0866141"
       rx="7.0866141"
       y="-85.039368"
       x="931.88971"
       height="14.173228"
       width="106.29921"
       id="rect3759"
       style="fill:none;fill-opacity:1;stroke:#000000;stroke-opacity:1;stroke-width:0.35433071;stroke-miterlimit:4;stroke-dasharray:none" />
    <rect
       style="fill:none;fill-opacity:1;stroke:#000000;stroke-opacity:1;stroke-width:0.35433071;stroke-miterlimit:4;stroke-dasharray:none"
       id="rect3765"
       width="106.29921"
       height="14.173228"
       x="931.88971"
       y="-283.46457"
       rx="7.0866141"
       ry="7.0866141"
       transform="matrix(0,1,-1,0,0,0)" />
    <rect
       transform="matrix(0,1,-1,0,0,0)"
       ry="7.0866141"
       rx="7.0866141"
       y="-340.15747"
       x="931.88971"
       height="14.173228"
       width="106.29921"
       id="rect3769"
       style="fill:none;fill-opacity:1;stroke:#000000;stroke-opacity:1;stroke-width:0.35433071;stroke-miterlimit:4;stroke-dasharray:none" />
    <rect
       transform="matrix(0,1,-1,0,0,0)"
       ry="7.0866141"
       rx="7.0866141"
       y="-28.346457"
       x="667.32281"
       height="14.173228"
       width="106.29921"
       id="rect3773"
       style="fill:none;fill-opacity:1;stroke:#000000;stroke-opacity:1;stroke-width:0.35433071;stroke-miterlimit:4;stroke-dasharray:none" />
    <rect
       style="fill:none;fill-opacity:1;stroke:#000000;stroke-opacity:1;stroke-width:0.35433071;stroke-miterlimit:4;stroke-dasharray:none"
       id="rect3777"
       width="106.29921"
       height="14.173228"
       x="667.32281"
       y="-85.039368"
       rx="7.0866141"
       ry="7.0866141"
       transform="matrix(0,1,-1,0,0,0)" />
    <rect
       transform="matrix(0,1,-1,0,0,0)"
       ry="7.0866141"
       rx="7.0866141"
       y="-283.46457"
       x="667.32281"
       height="14.173228"
       width="106.29921"
       id="rect3783"
       style="fill:none;fill-opacity:1;stroke:#000000;stroke-opacity:1;stroke-width:0.35433071;stroke-miterlimit:4;stroke-dasharray:none" />
    <rect
       style="fill:none;fill-opacity:1;stroke:#000000;stroke-opacity:1;stroke-width:0.35433071;stroke-miterlimit:4;stroke-dasharray:none"
       id="rect3787"
       width="106.29921"
       height="14.173228"
       x="667.32281"
       y="-340.15747"
       rx="7.0866141"
       ry="7.0866141"
       transform="matrix(0,1,-1,0,0,0)" />
    <rect
       style="fill:none;fill-opacity:1;stroke:#000000;stroke-opacity:1;stroke-width:0.35433071;stroke-miterlimit:4;stroke-dasharray:none"
       id="rect3789"
       width="106.29921"
       height="14.173228"
       x="535.03937"
       y="-28.346457"
       rx="7.0866141"
       ry="7.0866141"
       transform="matrix(0,1,-1,0,0,0)" />
    <rect
       transform="matrix(0,1,-1,0,0,0)"
       ry="7.0866141"
       rx="7.0866141"
       y="-85.039368"
       x="535.03937"
       height="14.173228"
       width="106.29921"
       id="rect3793"
       style="fill:none;fill-opacity:1;stroke:#000000;stroke-opacity:1;stroke-width:0.35433071;stroke-miterlimit:4;stroke-dasharray:none" />
    <rect
       style="fill:none;fill-opacity:1;stroke:#000000;stroke-opacity:1;stroke-width:0.35433071;stroke-miterlimit:4;stroke-dasharray:none"
       id="rect3799"
       width="106.29921"
       height="14.173228"
       x="535.03937"
       y="-283.46457"
       rx="7.0866141"
       ry="7.0866141"
       transform="matrix(0,1,-1,0,0,0)" />
    <rect
       transform="matrix(0,1,-1,0,0,0)"
       ry="7.0866141"
       rx="7.0866141"
       y="-340.15747"
       x="535.03937"
       height="14.173228"
       width="106.29921"
       id="rect3803"
       style="fill:none;fill-opacity:1;stroke:#000000;stroke-opacity:1;stroke-width:0.35433071;stroke-miterlimit:4;stroke-dasharray:none" />
    <rect
       style="fill:none;fill-opacity:1;stroke:#000000;stroke-opacity:1;stroke-width:0.35433071;stroke-miterlimit:4;stroke-dasharray:none"
       id="rect3805"
       width="106.29921"
       height="14.173228"
       x="799.60626"
       y="-28.346457"
       rx="7.0866141"
       ry="7.0866141"
       transform="matrix(0,1,-1,0,0,0)" />
    <rect
       transform="matrix(0,1,-1,0,0,0)"
       ry="7.0866141"
       rx="7.0866141"
       y="-85.039368"
       x="799.60626"
       height="14.173228"
       width="106.29921"
       id="rect3807"
       style="fill:none;fill-opacity:1;stroke:#000000;stroke-opacity:1;stroke-width:0.35433071;stroke-miterlimit:4;stroke-dasharray:none" />
    <rect
       style="fill:none;fill-opacity:1;stroke:#000000;stroke-opacity:1;stroke-width:0.35433071;stroke-miterlimit:4;stroke-dasharray:none"
       id="rect3809"
       width="106.29921"
       height="14.173228"
       x="799.60626"
       y="-283.46457"
       rx="7.0866141"
       ry="7.0866141"
       transform="matrix(0,1,-1,0,0,0)" />
    <rect
       transform="matrix(0,1,-1,0,0,0)"
       ry="7.0866141"
       rx="7.0866141"
       y="-340.15747"
       x="799.60626"
       height="14.173228"
       width="106.29921"
       id="rect3811"
       style="fill:none;fill-opacity:1;stroke:#000000;stroke-opacity:1;stroke-width:0.35433071;stroke-miterlimit:4;stroke-dasharray:none" />
    <rect
       style="fill:none;fill-opacity:1;stroke:#000000;stroke-opacity:1;stroke-width:0.35433071;stroke-miterlimit:4;stroke-dasharray:none"
       id="rect3853"
       width="106.29921"
       height="14.173228"
       x="-230.31494"
       y="-563.3858"
       rx="7.0866141"
       ry="7.0866141"
       transform="scale(-1,-1)" />
    <rect
       transform="scale(-1,-1)"
       ry="7.0866141"
       rx="7.0866141"
       y="-614.56689"
       x="-230.31494"
       height="14.173228"
       width="106.29921"
       id="rect3855"
       style="fill:none;fill-opacity:1;stroke:#000000;stroke-opacity:1;stroke-width:0.35433071;stroke-miterlimit:4;stroke-dasharray:none" />
    <rect
       transform="scale(-1,-1)"
       ry="7.0866141"
       rx="7.0866141"
       y="-665.74799"
       x="-230.31494"
       height="14.173228"
       width="106.29921"
       id="rect3857"
       style="fill:none;fill-opacity:1;stroke:#000000;stroke-opacity:1;stroke-width:0.35433071;stroke-miterlimit:4;stroke-dasharray:none" />
    <rect
       style="fill:none;fill-opacity:1;stroke:#000000;stroke-opacity:1;stroke-width:0.35433071;stroke-miterlimit:4;stroke-dasharray:none"
       id="rect3859"
       width="106.29921"
       height="14.173228"
       x="-230.31494"
       y="-716.92908"
       rx="7.0866141"
       ry="7.0866141"
       transform="scale(-1,-1)" />
    <rect
       style="fill:none;fill-opacity:1;stroke:#000000;stroke-opacity:1;stroke-width:0.35433071;stroke-miterlimit:4;stroke-dasharray:none"
       id="rect3861"
       width="106.29921"
       height="14.173228"
       x="-230.31494"
       y="-768.11023"
       rx="7.0866141"
       ry="7.0866141"
       transform="scale(-1,-1)" />
    <rect
       transform="scale(-1,-1)"
       ry="7.0866141"
       rx="7.0866141"
       y="-819.29132"
       x="-230.31494"
       height="14.173228"
       width="106.29921"
       id="rect3863"
       style="fill:none;fill-opacity:1;stroke:#000000;stroke-opacity:1;stroke-width:0.35433071;stroke-miterlimit:4;stroke-dasharray:none" />
    <rect
       transform="scale(-1,-1)"
       ry="7.0866141"
       rx="7.0866141"
       y="-870.47241"
       x="-230.31494"
       height="14.173228"
       width="106.29921"
       id="rect3865"
       style="fill:none;fill-opacity:1;stroke:#000000;stroke-opacity:1;stroke-width:0.35433071;stroke-miterlimit:4;stroke-dasharray:none" />
    <rect
       style="fill:none;fill-opacity:1;stroke:#000000;stroke-opacity:1;stroke-width:0.35433071;stroke-miterlimit:4;stroke-dasharray:none"
       id="rect3867"
       width="106.29921"
       height="14.173228"
       x="-230.31494"
       y="-972.83466"
       rx="7.0866141"
       ry="7.0866141"
       transform="scale(-1,-1)" />
    <rect
       style="fill:none;fill-opacity:1;stroke:#000000;stroke-opacity:1;stroke-width:0.35433071;stroke-miterlimit:4;stroke-dasharray:none"
       id="rect3869"
       width="106.29921"
       height="14.173228"
       x="-230.31494"
       y="-921.6535"
       rx="7.0866141"
       ry="7.0866141"
       transform="scale(-1,-1)" />
    <rect
       transform="scale(-1,-1)"
       ry="7.0866141"
       rx="7.0866141"
       y="-1024.0157"
       x="-230.31494"
       height="14.173228"
       width="106.29921"
       id="rect3871"
       style="fill:none;fill-opacity:1;stroke:#000000;stroke-opacity:1;stroke-width:0.35433071;stroke-miterlimit:4;stroke-dasharray:none" />
    <rect
       style="opacity:1;fill:none;fill-opacity:1;stroke:#000000;stroke-width:0.35433071;stroke-linecap:butt;stroke-linejoin:round;stroke-miterlimit:4;stroke-dasharray:none;stroke-dashoffset:0;stroke-opacity:1"
       id="rect7253"
       width="354.33069"
       height="531.49603"
       x="0"
       y="520.86615" />
  </g>
</svg>
